/* XPM */
static char * bullet_xpm[] = {
"19 20 2 1",
" 	c None",
".	c #C0C0C0",
"                   ",
"                   ",
"                   ",
"                   ",
"                   ",
"                   ",
"                   ",
"                   ",
"       ....        ",
"       ....        ",
"       ....        ",
"       ....        ",
"                   ",
"                   ",
"                   ",
"                   ",
"                   ",
"                   ",
"                   ",
"                   "};
