/* XPM */
static char * bullet_focused_xpm[] = {
"19 20 2 1",
" 	c None",
".	c #808080",
"                   ",
"                   ",
"                   ",
"                   ",
"                   ",
"                   ",
"                   ",
"                   ",
"       ....        ",
"       ....        ",
"       ....        ",
"       ....        ",
"                   ",
"                   ",
"                   ",
"                   ",
"                   ",
"                   ",
"                   ",
"                   "};
